<?xml version="1.0" encoding="iso-8859-1"?>
<!-- Generator: Adobe Illustrator 19.0.0, SVG Export Plug-In . SVG Version: 6.00 Build 0)  -->
<svg version="1.1" id="Layer_1" xmlns="http://www.w3.org/2000/svg" xmlns:xlink="http://www.w3.org/1999/xlink" x="0px" y="0px"
	 viewBox="0 0 512 512" style="enable-background:new 0 0 512 512;" xml:space="preserve">
<g>
	<g>
		<path d="M483.556,246.518c0-60.269-40.387-111.25-95.509-127.389C381.211,52.306,324.599,0,256,0
			c-68.6,0-125.208,52.306-132.046,119.13c-55.122,16.139-95.509,67.12-95.509,127.389c0,60.067,40.116,110.914,94.954,127.232
			c-0.074,1.829-0.139,3.662-0.139,5.509C123.259,452.454,182.806,512,256,512s132.741-59.546,132.741-132.741
			c0-1.847-0.065-3.68-0.139-5.509C443.44,357.433,483.556,306.586,483.556,246.518z M238.877,266.771
			c5.588-0.847,11.303-1.289,17.123-1.289c5.82,0,11.537,0.442,17.123,1.289c-2.796,15.493-8.72,29.905-17.123,42.549
			C247.597,296.676,241.676,282.264,238.877,266.771z M243.676,324.759c-20.745,21.864-50.042,35.537-82.491,35.537
			c-5.82,0-11.535-0.444-17.123-1.289c7.452-41.285,37.227-74.877,76.35-87.796C224.141,290.942,232.238,309.141,243.676,324.759z
			 M237.079,244.917c0.315-22.59,7.229-43.606,18.921-61.199c11.692,17.593,18.609,38.609,18.924,61.199
			c-6.16,1.035-12.474,1.602-18.924,1.602C249.551,246.518,243.236,245.952,237.079,244.917z M291.588,271.211
			c39.123,12.919,68.898,46.512,76.35,87.796c-5.586,0.845-11.303,1.289-17.123,1.289c-32.449,0-61.743-13.674-82.491-35.537
			C279.762,309.141,287.859,290.942,291.588,271.211z M268.324,168.278c20.748-21.863,50.042-35.537,82.491-35.537
			c6.449,0,12.764,0.567,18.924,1.602c-0.68,48.81-32.227,90.268-75.977,105.708C292.472,213.294,283.211,188.607,268.324,168.278z
			 M256,18.963c56.699,0,103.829,41.683,112.382,96.014c-5.752-0.766-11.609-1.199-17.567-1.199
			c-37.116,0-70.702,15.329-94.815,39.968c-24.111-24.639-57.699-39.968-94.815-39.968c-5.958,0-11.815,0.433-17.567,1.199
			C152.174,60.646,199.303,18.963,256,18.963z M161.185,132.741c32.449,0,61.745,13.674,82.491,35.537
			c-14.887,20.329-24.148,45.016-25.438,71.773c-43.748-15.44-75.294-56.898-75.974-105.708
			C148.421,133.308,154.736,132.741,161.185,132.741z M47.407,246.518c0-49.507,31.787-91.701,76.016-107.31
			c2.558,53.033,36.391,97.968,83.403,116.792c-41.516,16.623-72.734,53.614-81.229,98.567
			C80.241,339.59,47.407,296.831,47.407,246.518z M256,493.037c-62.741,0-113.778-51.037-113.778-113.778
			c0-0.461,0.03-0.912,0.035-1.373c6.188,0.889,12.5,1.373,18.928,1.373c37.116,0,70.704-15.329,94.815-39.968
			c24.113,24.639,57.699,39.968,94.815,39.968c6.428,0,12.743-0.484,18.928-1.373c0.007,0.461,0.035,0.912,0.035,1.373
			C369.778,442,318.741,493.037,256,493.037z M386.403,354.567c-8.495-44.954-39.711-81.944-81.229-98.567
			c47.012-18.824,80.845-63.759,83.403-116.792c44.229,15.609,76.016,57.803,76.016,107.31
			C464.593,296.831,431.759,339.59,386.403,354.567z"/>
	</g>
</g>
<g>
</g>
<g>
</g>
<g>
</g>
<g>
</g>
<g>
</g>
<g>
</g>
<g>
</g>
<g>
</g>
<g>
</g>
<g>
</g>
<g>
</g>
<g>
</g>
<g>
</g>
<g>
</g>
<g>
</g>
</svg>
