<?xml version="1.0" encoding="iso-8859-1"?>
<!-- Generator: Adobe Illustrator 17.1.0, SVG Export Plug-In . SVG Version: 6.00 Build 0)  -->
<!DOCTYPE svg PUBLIC "-//W3C//DTD SVG 1.1//EN" "http://www.w3.org/Graphics/SVG/1.1/DTD/svg11.dtd">
<svg version="1.1" id="Capa_1" xmlns="http://www.w3.org/2000/svg" xmlns:xlink="http://www.w3.org/1999/xlink" x="0px" y="0px"
	 viewBox="0 0 326.25 326.25" style="enable-background:new 0 0 326.25 326.25;" xml:space="preserve">
<path id="XMLID_742_" d="M295.273,199.24v84.013c0,6.075-4.925,11-11,11H11c-6.075,0-11-4.925-11-11V55.526c0-6.075,4.925-11,11-11
	h8.736c0.1-0.001,0.199-0.001,0.303,0h127.284c6.075,0,11,4.925,11,11s-4.925,11-11,11H40.81l31.848,46.319h74.666
	c6.075,0,11,4.925,11,11s-4.925,11-11,11H66.871c-3.622,0-7.012-1.783-9.064-4.768L22,77.999v194.254h251.273V199.24
	c0-6.075,4.925-11,11-11S295.273,193.165,295.273,199.24z M326.25,42.997v109.386c0,6.075-4.925,11-11,11h-72.599l-39.837,25.005
	c-1.784,1.12-3.814,1.683-5.848,1.683c-1.831,0-3.664-0.457-5.323-1.374c-3.503-1.937-5.677-5.624-5.677-9.626V42.997
	c0-6.075,4.925-11,11-11H315.25C321.325,31.997,326.25,36.922,326.25,42.997z M304.25,53.997h-96.283v105.183l25.671-16.113
	c1.752-1.1,3.778-1.683,5.848-1.683h64.765V53.997z"/>
<g>
</g>
<g>
</g>
<g>
</g>
<g>
</g>
<g>
</g>
<g>
</g>
<g>
</g>
<g>
</g>
<g>
</g>
<g>
</g>
<g>
</g>
<g>
</g>
<g>
</g>
<g>
</g>
<g>
</g>
</svg>
