<svg id="Layer_1" data-name="Layer 1" xmlns="http://www.w3.org/2000/svg" viewBox="0 0 21.3 21.15"><path d="M19,8.75a.74.74,0,0,1-.53-.22l-3-3a.63.63,0,0,1-.16-.24.73.73,0,0,1,0-.58.63.63,0,0,1,.16-.24l3-3a.75.75,0,0,1,1.06,1.06L17.81,4.25H22a.75.75,0,0,1,0,1.5H17.81l1.72,1.72a.75.75,0,0,1,0,1.06A.74.74,0,0,1,19,8.75Z" transform="translate(-1.45 -1.25)"/><path d="M20.19,22.4a2.57,2.57,0,0,1-.55-.06C16.61,21.68,10.92,20,7,16,3.18,12.24,1.9,7,1.47,4.16a2.47,2.47,0,0,1,.58-2,2.63,2.63,0,0,1,2-.91H7.81a.75.75,0,0,1,.71.49L10,5.61A.76.76,0,0,1,10,6L9.28,9.92a9.42,9.42,0,0,0,4.83,4.79L18,14a.73.73,0,0,1,.41,0l3.88,1.48a.75.75,0,0,1,.48.7v3.59a2.66,2.66,0,0,1-1,2.08A2.53,2.53,0,0,1,20.19,22.4ZM4.06,2.75a1.17,1.17,0,0,0-.88.39,1,1,0,0,0-.22.8C3.35,6.56,4.54,11.48,8,15c3.68,3.68,9.06,5.28,11.93,5.91a1,1,0,0,0,.87-.2,1.16,1.16,0,0,0,.42-.91V16.7l-3.2-1.22-3.91.76a.73.73,0,0,1-.48-.07c-3.07-1.54-4.82-3.3-5.86-5.89a.85.85,0,0,1,0-.42l.73-3.92L7.3,2.75Z" transform="translate(-1.45 -1.25)"/></svg>